<?xml version="1.0" encoding="UTF-8" standalone="no"?>
<!DOCTYPE svg PUBLIC "-//W3C//DTD SVG 1.1//EN"
 "http://www.w3.org/Graphics/SVG/1.1/DTD/svg11.dtd">
<!-- Generated by graphviz version 2.42.3 (20191010.1750)
 -->
<!-- Title: G Pages: 1 -->
<svg width="1418pt" height="780pt"
 viewBox="0.00 0.00 1418.00 780.00" xmlns="http://www.w3.org/2000/svg" xmlns:xlink="http://www.w3.org/1999/xlink">
<g id="graph0" class="graph" transform="scale(1 1) rotate(0) translate(4 776)">
<title>G</title>
<polygon fill="white" stroke="transparent" points="-4,4 -4,-776 1414,-776 1414,4 -4,4"/>
<g id="clust2" class="cluster">
<title>cluster_c0</title>
<polygon fill="none" stroke="black" points="8,-8 8,-636 1402,-636 1402,-8 8,-8"/>
</g>
<!-- balance -->
<g id="node1" class="node">
<title>balance</title>
<ellipse fill="none" stroke="black" cx="731" cy="-754" rx="37.22" ry="18"/>
<text text-anchor="middle" x="731" y="-749.8" font-family="Times,serif" font-size="14.00">balance</text>
</g>
<!-- streams -->
<g id="node2" class="node">
<title>streams</title>
<ellipse fill="none" stroke="black" cx="690" cy="-682" rx="37.24" ry="18"/>
<text text-anchor="middle" x="690" y="-677.8" font-family="Times,serif" font-size="14.00">streams</text>
</g>
<!-- balance&#45;&gt;streams -->
<g id="edge1" class="edge">
<title>balance&#45;&gt;streams</title>
<path fill="none" stroke="black" d="M721.28,-736.41C716.38,-728.04 710.33,-717.71 704.86,-708.37"/>
<polygon fill="black" stroke="black" points="707.72,-706.33 699.65,-699.47 701.68,-709.87 707.72,-706.33"/>
</g>
<!-- calls -->
<g id="node3" class="node">
<title>calls</title>
<ellipse fill="none" stroke="black" cx="772" cy="-682" rx="27" ry="18"/>
<text text-anchor="middle" x="772" y="-677.8" font-family="Times,serif" font-size="14.00">calls</text>
</g>
<!-- balance&#45;&gt;calls -->
<g id="edge2" class="edge">
<title>balance&#45;&gt;calls</title>
<path fill="none" stroke="black" d="M740.72,-736.41C745.74,-727.83 751.97,-717.19 757.55,-707.67"/>
<polygon fill="black" stroke="black" points="760.6,-709.39 762.64,-698.99 754.56,-705.85 760.6,-709.39"/>
</g>
<!-- c0 -->
<g id="node4" class="node">
<title>c0</title>
<polygon fill="none" stroke="black" points="801.25,-628 742.75,-628 742.75,-592 801.25,-592 801.25,-628"/>
<text text-anchor="middle" x="772" y="-605.8" font-family="Times,serif" font-size="14.00">balance</text>
</g>
<!-- calls&#45;&gt;c0 -->
<g id="edge3" class="edge">
<title>calls&#45;&gt;c0</title>
<path fill="none" stroke="black" d="M772,-663.7C772,-655.98 772,-646.71 772,-638.11"/>
<polygon fill="black" stroke="black" points="775.5,-638.1 772,-628.1 768.5,-638.1 775.5,-638.1"/>
</g>
<!-- c0v0 -->
<g id="node5" class="node">
<title>c0v0</title>
<ellipse fill="none" stroke="black" cx="772" cy="-538" rx="45.46" ry="18"/>
<text text-anchor="middle" x="772" y="-533.8" font-family="Times,serif" font-size="14.00">REDUCE</text>
</g>
<!-- c0&#45;&gt;c0v0 -->
<g id="edge4" class="edge">
<title>c0&#45;&gt;c0v0</title>
<path fill="none" stroke="black" d="M772,-591.7C772,-583.98 772,-574.71 772,-566.11"/>
<polygon fill="black" stroke="black" points="775.5,-566.1 772,-556.1 768.5,-566.1 775.5,-566.1"/>
</g>
<!-- c0v0c0 -->
<g id="node6" class="node">
<title>c0v0c0</title>
<ellipse fill="none" stroke="black" cx="674" cy="-466" rx="29.03" ry="18"/>
<text text-anchor="middle" x="674" y="-461.8" font-family="Times,serif" font-size="14.00">ADD</text>
</g>
<!-- c0v0&#45;&gt;c0v0c0 -->
<g id="edge5" class="edge">
<title>c0v0&#45;&gt;c0v0c0</title>
<path fill="none" stroke="black" d="M750.74,-521.81C736.11,-511.36 716.56,-497.4 700.85,-486.18"/>
<polygon fill="black" stroke="black" points="702.75,-483.24 692.58,-480.27 698.68,-488.93 702.75,-483.24"/>
</g>
<!-- c0v0c1 -->
<g id="node9" class="node">
<title>c0v0c1</title>
<ellipse fill="none" stroke="black" cx="772" cy="-466" rx="50.26" ry="18"/>
<text text-anchor="middle" x="772" y="-461.8" font-family="Times,serif" font-size="14.00">UINT64(0)</text>
</g>
<!-- c0v0&#45;&gt;c0v0c1 -->
<g id="edge8" class="edge">
<title>c0v0&#45;&gt;c0v0c1</title>
<path fill="none" stroke="black" d="M772,-519.7C772,-511.98 772,-502.71 772,-494.11"/>
<polygon fill="black" stroke="black" points="775.5,-494.1 772,-484.1 768.5,-494.1 775.5,-494.1"/>
</g>
<!-- c0v0c2 -->
<g id="node10" class="node">
<title>c0v0c2</title>
<ellipse fill="none" stroke="black" cx="870" cy="-466" rx="29.05" ry="18"/>
<text text-anchor="middle" x="870" y="-461.8" font-family="Times,serif" font-size="14.00">MAP</text>
</g>
<!-- c0v0&#45;&gt;c0v0c2 -->
<g id="edge9" class="edge">
<title>c0v0&#45;&gt;c0v0c2</title>
<path fill="none" stroke="black" d="M793.26,-521.81C807.89,-511.36 827.44,-497.4 843.15,-486.18"/>
<polygon fill="black" stroke="black" points="845.32,-488.93 851.42,-480.27 841.25,-483.24 845.32,-488.93"/>
</g>
<!-- c0v0c0c0 -->
<g id="node7" class="node">
<title>c0v0c0c0</title>
<ellipse fill="none" stroke="black" cx="594" cy="-394" rx="39.18" ry="18"/>
<text text-anchor="middle" x="594" y="-389.8" font-family="Times,serif" font-size="14.00">ARG(0)</text>
</g>
<!-- c0v0c0&#45;&gt;c0v0c0c0 -->
<g id="edge6" class="edge">
<title>c0v0c0&#45;&gt;c0v0c0c0</title>
<path fill="none" stroke="black" d="M657.81,-450.83C646.8,-441.2 632,-428.25 619.43,-417.25"/>
<polygon fill="black" stroke="black" points="621.38,-414.31 611.55,-410.36 616.77,-419.58 621.38,-414.31"/>
</g>
<!-- c0v0c0c1 -->
<g id="node8" class="node">
<title>c0v0c0c1</title>
<ellipse fill="none" stroke="black" cx="690" cy="-394" rx="39.18" ry="18"/>
<text text-anchor="middle" x="690" y="-389.8" font-family="Times,serif" font-size="14.00">ARG(1)</text>
</g>
<!-- c0v0c0&#45;&gt;c0v0c0c1 -->
<g id="edge7" class="edge">
<title>c0v0c0&#45;&gt;c0v0c0c1</title>
<path fill="none" stroke="black" d="M677.87,-448.05C679.65,-440.26 681.81,-430.82 683.81,-422.08"/>
<polygon fill="black" stroke="black" points="687.24,-422.8 686.05,-412.28 680.41,-421.24 687.24,-422.8"/>
</g>
<!-- c0v0c2c0 -->
<g id="node11" class="node">
<title>c0v0c2c0</title>
<ellipse fill="none" stroke="black" cx="854" cy="-394" rx="75.26" ry="18"/>
<text text-anchor="middle" x="854" y="-389.8" font-family="Times,serif" font-size="14.00">GET_CAPACITY</text>
</g>
<!-- c0v0c2&#45;&gt;c0v0c2c0 -->
<g id="edge10" class="edge">
<title>c0v0c2&#45;&gt;c0v0c2c0</title>
<path fill="none" stroke="black" d="M866.13,-448.05C864.35,-440.26 862.19,-430.82 860.19,-422.08"/>
<polygon fill="black" stroke="black" points="863.59,-421.24 857.95,-412.28 856.76,-422.8 863.59,-421.24"/>
</g>
<!-- c0v0c2c1 -->
<g id="node13" class="node">
<title>c0v0c2c1</title>
<ellipse fill="none" stroke="black" cx="1019" cy="-394" rx="71.55" ry="18"/>
<text text-anchor="middle" x="1019" y="-389.8" font-family="Times,serif" font-size="14.00">QUERY_CELLS</text>
</g>
<!-- c0v0c2&#45;&gt;c0v0c2c1 -->
<g id="edge12" class="edge">
<title>c0v0c2&#45;&gt;c0v0c2c1</title>
<path fill="none" stroke="black" d="M892.63,-454.37C915.06,-443.83 949.94,-427.44 977.38,-414.55"/>
<polygon fill="black" stroke="black" points="979.18,-417.57 986.74,-410.15 976.2,-411.24 979.18,-417.57"/>
</g>
<!-- c0v0c2c0c0 -->
<g id="node12" class="node">
<title>c0v0c2c0c0</title>
<ellipse fill="none" stroke="black" cx="854" cy="-322" rx="39.18" ry="18"/>
<text text-anchor="middle" x="854" y="-317.8" font-family="Times,serif" font-size="14.00">ARG(0)</text>
</g>
<!-- c0v0c2c0&#45;&gt;c0v0c2c0c0 -->
<g id="edge11" class="edge">
<title>c0v0c2c0&#45;&gt;c0v0c2c0c0</title>
<path fill="none" stroke="black" d="M854,-375.7C854,-367.98 854,-358.71 854,-350.11"/>
<polygon fill="black" stroke="black" points="857.5,-350.1 854,-340.1 850.5,-350.1 857.5,-350.1"/>
</g>
<!-- c0v0c2c1c0 -->
<g id="node14" class="node">
<title>c0v0c2c1c0</title>
<ellipse fill="none" stroke="black" cx="1019" cy="-322" rx="29.03" ry="18"/>
<text text-anchor="middle" x="1019" y="-317.8" font-family="Times,serif" font-size="14.00">AND</text>
</g>
<!-- c0v0c2c1&#45;&gt;c0v0c2c1c0 -->
<g id="edge13" class="edge">
<title>c0v0c2c1&#45;&gt;c0v0c2c1c0</title>
<path fill="none" stroke="black" d="M1019,-375.7C1019,-367.98 1019,-358.71 1019,-350.11"/>
<polygon fill="black" stroke="black" points="1022.5,-350.1 1019,-340.1 1015.5,-350.1 1022.5,-350.1"/>
</g>
<!-- c0v0c2c1c0c0 -->
<g id="node15" class="node">
<title>c0v0c2c1c0c0</title>
<ellipse fill="none" stroke="black" cx="523" cy="-250" rx="40.14" ry="18"/>
<text text-anchor="middle" x="523" y="-245.8" font-family="Times,serif" font-size="14.00">EQUAL</text>
</g>
<!-- c0v0c2c1c0&#45;&gt;c0v0c2c1c0c0 -->
<g id="edge14" class="edge">
<title>c0v0c2c1c0&#45;&gt;c0v0c2c1c0c0</title>
<path fill="none" stroke="black" d="M990.64,-316.84C966.94,-313.37 932.28,-308.32 902,-304 782.89,-287.02 642.64,-267.54 570.76,-257.6"/>
<polygon fill="black" stroke="black" points="571.05,-254.1 560.66,-256.2 570.09,-261.04 571.05,-254.1"/>
</g>
<!-- c0v0c2c1c0c1 -->
<g id="node20" class="node">
<title>c0v0c2c1c0c1</title>
<ellipse fill="none" stroke="black" cx="1019" cy="-250" rx="40.14" ry="18"/>
<text text-anchor="middle" x="1019" y="-245.8" font-family="Times,serif" font-size="14.00">EQUAL</text>
</g>
<!-- c0v0c2c1c0&#45;&gt;c0v0c2c1c0c1 -->
<g id="edge19" class="edge">
<title>c0v0c2c1c0&#45;&gt;c0v0c2c1c0c1</title>
<path fill="none" stroke="black" d="M1019,-303.7C1019,-295.98 1019,-286.71 1019,-278.11"/>
<polygon fill="black" stroke="black" points="1022.5,-278.1 1019,-268.1 1015.5,-278.1 1022.5,-278.1"/>
</g>
<!-- c0v0c2c1c0c2 -->
<g id="node25" class="node">
<title>c0v0c2c1c0c2</title>
<ellipse fill="none" stroke="black" cx="1219" cy="-250" rx="40.14" ry="18"/>
<text text-anchor="middle" x="1219" y="-245.8" font-family="Times,serif" font-size="14.00">EQUAL</text>
</g>
<!-- c0v0c2c1c0&#45;&gt;c0v0c2c1c0c2 -->
<g id="edge24" class="edge">
<title>c0v0c2c1c0&#45;&gt;c0v0c2c1c0c2</title>
<path fill="none" stroke="black" d="M1043.93,-312.28C1077.69,-300.46 1138.35,-279.23 1178.65,-265.12"/>
<polygon fill="black" stroke="black" points="1179.89,-268.4 1188.18,-261.79 1177.58,-261.79 1179.89,-268.4"/>
</g>
<!-- c0v0c2c1c0c0c0 -->
<g id="node16" class="node">
<title>c0v0c2c1c0c0c0</title>
<ellipse fill="none" stroke="black" cx="100" cy="-178" rx="84.08" ry="18"/>
<text text-anchor="middle" x="100" y="-173.8" font-family="Times,serif" font-size="14.00">GET_CODE_HASH</text>
</g>
<!-- c0v0c2c1c0c0&#45;&gt;c0v0c2c1c0c0c0 -->
<g id="edge15" class="edge">
<title>c0v0c2c1c0c0&#45;&gt;c0v0c2c1c0c0c0</title>
<path fill="none" stroke="black" d="M485.34,-243.22C424.02,-233.75 298.8,-214.16 193,-196 185.94,-194.79 178.58,-193.49 171.23,-192.18"/>
<polygon fill="black" stroke="black" points="171.71,-188.71 161.25,-190.39 170.47,-195.6 171.71,-188.71"/>
</g>
<!-- c0v0c2c1c0c0c1 -->
<g id="node19" class="node">
<title>c0v0c2c1c0c0c1</title>
<ellipse fill="none" stroke="black" cx="523" cy="-178" rx="320.54" ry="18"/>
<text text-anchor="middle" x="523" y="-173.8" font-family="Times,serif" font-size="14.00">BYTES(0x9bd7e06f3ecf4be0f2fcd2188b23f1b9fcc88e5d4b65a8637b17723bbda3cce8)</text>
</g>
<!-- c0v0c2c1c0c0&#45;&gt;c0v0c2c1c0c0c1 -->
<g id="edge18" class="edge">
<title>c0v0c2c1c0c0&#45;&gt;c0v0c2c1c0c0c1</title>
<path fill="none" stroke="black" d="M523,-231.7C523,-223.98 523,-214.71 523,-206.11"/>
<polygon fill="black" stroke="black" points="526.5,-206.1 523,-196.1 519.5,-206.1 526.5,-206.1"/>
</g>
<!-- c0v0c2c1c0c0c0c0 -->
<g id="node17" class="node">
<title>c0v0c2c1c0c0c0c0</title>
<ellipse fill="none" stroke="black" cx="100" cy="-106" rx="55.59" ry="18"/>
<text text-anchor="middle" x="100" y="-101.8" font-family="Times,serif" font-size="14.00">GET_LOCK</text>
</g>
<!-- c0v0c2c1c0c0c0&#45;&gt;c0v0c2c1c0c0c0c0 -->
<g id="edge16" class="edge">
<title>c0v0c2c1c0c0c0&#45;&gt;c0v0c2c1c0c0c0c0</title>
<path fill="none" stroke="black" d="M100,-159.7C100,-151.98 100,-142.71 100,-134.11"/>
<polygon fill="black" stroke="black" points="103.5,-134.1 100,-124.1 96.5,-134.1 103.5,-134.1"/>
</g>
<!-- c0v0c2c1c0c0c0c0c0 -->
<g id="node18" class="node">
<title>c0v0c2c1c0c0c0c0c0</title>
<ellipse fill="none" stroke="black" cx="100" cy="-34" rx="39.18" ry="18"/>
<text text-anchor="middle" x="100" y="-29.8" font-family="Times,serif" font-size="14.00">ARG(0)</text>
</g>
<!-- c0v0c2c1c0c0c0c0&#45;&gt;c0v0c2c1c0c0c0c0c0 -->
<g id="edge17" class="edge">
<title>c0v0c2c1c0c0c0c0&#45;&gt;c0v0c2c1c0c0c0c0c0</title>
<path fill="none" stroke="black" d="M100,-87.7C100,-79.98 100,-70.71 100,-62.11"/>
<polygon fill="black" stroke="black" points="103.5,-62.1 100,-52.1 96.5,-62.1 103.5,-62.1"/>
</g>
<!-- c0v0c2c1c0c1c0 -->
<g id="node21" class="node">
<title>c0v0c2c1c0c1c0</title>
<ellipse fill="none" stroke="black" cx="944" cy="-178" rx="82.15" ry="18"/>
<text text-anchor="middle" x="944" y="-173.8" font-family="Times,serif" font-size="14.00">GET_HASH_TYPE</text>
</g>
<!-- c0v0c2c1c0c1&#45;&gt;c0v0c2c1c0c1c0 -->
<g id="edge20" class="edge">
<title>c0v0c2c1c0c1&#45;&gt;c0v0c2c1c0c1c0</title>
<path fill="none" stroke="black" d="M1002.36,-233.46C992.7,-224.45 980.34,-212.92 969.49,-202.79"/>
<polygon fill="black" stroke="black" points="971.61,-199.98 961.91,-195.71 966.83,-205.1 971.61,-199.98"/>
</g>
<!-- c0v0c2c1c0c1c1 -->
<g id="node24" class="node">
<title>c0v0c2c1c0c1c1</title>
<ellipse fill="none" stroke="black" cx="1095" cy="-178" rx="50.26" ry="18"/>
<text text-anchor="middle" x="1095" y="-173.8" font-family="Times,serif" font-size="14.00">UINT64(1)</text>
</g>
<!-- c0v0c2c1c0c1&#45;&gt;c0v0c2c1c0c1c1 -->
<g id="edge23" class="edge">
<title>c0v0c2c1c0c1&#45;&gt;c0v0c2c1c0c1c1</title>
<path fill="none" stroke="black" d="M1035.87,-233.46C1045.96,-224.17 1058.96,-212.19 1070.21,-201.83"/>
<polygon fill="black" stroke="black" points="1072.67,-204.33 1077.65,-194.98 1067.93,-199.18 1072.67,-204.33"/>
</g>
<!-- c0v0c2c1c0c1c0c0 -->
<g id="node22" class="node">
<title>c0v0c2c1c0c1c0c0</title>
<ellipse fill="none" stroke="black" cx="944" cy="-106" rx="55.59" ry="18"/>
<text text-anchor="middle" x="944" y="-101.8" font-family="Times,serif" font-size="14.00">GET_LOCK</text>
</g>
<!-- c0v0c2c1c0c1c0&#45;&gt;c0v0c2c1c0c1c0c0 -->
<g id="edge21" class="edge">
<title>c0v0c2c1c0c1c0&#45;&gt;c0v0c2c1c0c1c0c0</title>
<path fill="none" stroke="black" d="M944,-159.7C944,-151.98 944,-142.71 944,-134.11"/>
<polygon fill="black" stroke="black" points="947.5,-134.1 944,-124.1 940.5,-134.1 947.5,-134.1"/>
</g>
<!-- c0v0c2c1c0c1c0c0c0 -->
<g id="node23" class="node">
<title>c0v0c2c1c0c1c0c0c0</title>
<ellipse fill="none" stroke="black" cx="944" cy="-34" rx="39.18" ry="18"/>
<text text-anchor="middle" x="944" y="-29.8" font-family="Times,serif" font-size="14.00">ARG(0)</text>
</g>
<!-- c0v0c2c1c0c1c0c0&#45;&gt;c0v0c2c1c0c1c0c0c0 -->
<g id="edge22" class="edge">
<title>c0v0c2c1c0c1c0c0&#45;&gt;c0v0c2c1c0c1c0c0c0</title>
<path fill="none" stroke="black" d="M944,-87.7C944,-79.98 944,-70.71 944,-62.11"/>
<polygon fill="black" stroke="black" points="947.5,-62.1 944,-52.1 940.5,-62.1 947.5,-62.1"/>
</g>
<!-- c0v0c2c1c0c2c0 -->
<g id="node26" class="node">
<title>c0v0c2c1c0c2c0</title>
<ellipse fill="none" stroke="black" cx="1219" cy="-178" rx="55.12" ry="18"/>
<text text-anchor="middle" x="1219" y="-173.8" font-family="Times,serif" font-size="14.00">GET_ARGS</text>
</g>
<!-- c0v0c2c1c0c2&#45;&gt;c0v0c2c1c0c2c0 -->
<g id="edge25" class="edge">
<title>c0v0c2c1c0c2&#45;&gt;c0v0c2c1c0c2c0</title>
<path fill="none" stroke="black" d="M1219,-231.7C1219,-223.98 1219,-214.71 1219,-206.11"/>
<polygon fill="black" stroke="black" points="1222.5,-206.1 1219,-196.1 1215.5,-206.1 1222.5,-206.1"/>
</g>
<!-- c0v0c2c1c0c2c1 -->
<g id="node29" class="node">
<title>c0v0c2c1c0c2c1</title>
<ellipse fill="none" stroke="black" cx="1343" cy="-178" rx="51.12" ry="18"/>
<text text-anchor="middle" x="1343" y="-173.8" font-family="Times,serif" font-size="14.00">PARAM(0)</text>
</g>
<!-- c0v0c2c1c0c2&#45;&gt;c0v0c2c1c0c2c1 -->
<g id="edge28" class="edge">
<title>c0v0c2c1c0c2&#45;&gt;c0v0c2c1c0c2c1</title>
<path fill="none" stroke="black" d="M1242.91,-235.5C1261.42,-225.05 1287.34,-210.42 1308.16,-198.67"/>
<polygon fill="black" stroke="black" points="1310.04,-201.63 1317.02,-193.66 1306.6,-195.53 1310.04,-201.63"/>
</g>
<!-- c0v0c2c1c0c2c0c0 -->
<g id="node27" class="node">
<title>c0v0c2c1c0c2c0c0</title>
<ellipse fill="none" stroke="black" cx="1219" cy="-106" rx="55.59" ry="18"/>
<text text-anchor="middle" x="1219" y="-101.8" font-family="Times,serif" font-size="14.00">GET_LOCK</text>
</g>
<!-- c0v0c2c1c0c2c0&#45;&gt;c0v0c2c1c0c2c0c0 -->
<g id="edge26" class="edge">
<title>c0v0c2c1c0c2c0&#45;&gt;c0v0c2c1c0c2c0c0</title>
<path fill="none" stroke="black" d="M1219,-159.7C1219,-151.98 1219,-142.71 1219,-134.11"/>
<polygon fill="black" stroke="black" points="1222.5,-134.1 1219,-124.1 1215.5,-134.1 1222.5,-134.1"/>
</g>
<!-- c0v0c2c1c0c2c0c0c0 -->
<g id="node28" class="node">
<title>c0v0c2c1c0c2c0c0c0</title>
<ellipse fill="none" stroke="black" cx="1219" cy="-34" rx="39.18" ry="18"/>
<text text-anchor="middle" x="1219" y="-29.8" font-family="Times,serif" font-size="14.00">ARG(0)</text>
</g>
<!-- c0v0c2c1c0c2c0c0&#45;&gt;c0v0c2c1c0c2c0c0c0 -->
<g id="edge27" class="edge">
<title>c0v0c2c1c0c2c0c0&#45;&gt;c0v0c2c1c0c2c0c0c0</title>
<path fill="none" stroke="black" d="M1219,-87.7C1219,-79.98 1219,-70.71 1219,-62.11"/>
<polygon fill="black" stroke="black" points="1222.5,-62.1 1219,-52.1 1215.5,-62.1 1222.5,-62.1"/>
</g>
</g>
</svg>
